<svg xmlns="http://www.w3.org/2000/svg" fill="none" viewBox="0 0 128 128">
  <path d="M64 16c-26.5 0-48 21.5-48 48s21.5 48 48 48 48-21.5 48-48-21.5-48-48-48zm0 88c-22.1 0-40-17.9-40-40s17.9-40 40-40 40 17.9 40 40-17.9 40-40 40z" fill="#FF4500"/>
  <path d="M85 59c0 5-4 9-9 9s-9-4-9-9 4-9 9-9 9 4 9 9zm-33 0c0 5-4 9-9 9s-9-4-9-9 4-9 9-9 9 4 9 9zm7 15h14c1.1 0 2 .9 2 2s-.9 2-2 2H59c-1.1 0-2-.9-2-2s.9-2 2-2z" fill="#FF4500"/>
  <style>
    path { fill: #FF4500; }
    @media (prefers-color-scheme: dark) {
      path { fill: #FF7744; }
    }
  </style>
</svg>
